<svg width="13" height="14" viewBox="0 0 13 14" fill="none" xmlns="http://www.w3.org/2000/svg">
<path d="M4.14844 3.77344C3.98438 3.77344 3.85156 3.63281 3.85156 3.46875C3.85156 3.30469 3.98438 3.16406 4.14844 3.16406C4.32031 3.16406 4.45312 3.30469 4.45312 3.46875C4.45312 3.63281 4.32031 3.77344 4.14844 3.77344ZM7.44531 3.77344C7.27344 3.77344 7.14063 3.63281 7.14063 3.46875C7.14063 3.30469 7.27344 3.16406 7.44531 3.16406C7.60938 3.16406 7.74219 3.30469 7.74219 3.46875C7.74219 3.63281 7.60938 3.77344 7.44531 3.77344ZM1.10156 5.21094C0.65625 5.21094 0.296875 5.57031 0.296875 6.00781V9.36719C0.296875 9.8125 0.65625 10.1719 1.10156 10.1719C1.54688 10.1719 1.89844 9.8125 1.89844 9.36719V6.00781C1.89844 5.57031 1.53906 5.21094 1.10156 5.21094ZM9.38281 5.35937H2.21094V10.5625C2.21094 11.0391 2.59375 11.4219 3.07031 11.4219H3.64844L3.65625 13.1953C3.65625 13.6406 4.01562 14 4.45312 14C4.89844 14 5.25781 13.6406 5.25781 13.1953V11.4219H6.33594V13.1953C6.33594 13.6406 6.69531 14 7.14063 14C7.58594 14 7.94531 13.6406 7.94531 13.1953V11.4219H8.53125C9 11.4219 9.38281 11.0391 9.38281 10.5625V5.35937ZM7.57031 2.19531L8.125 1.17187C8.15625 1.11719 8.14063 1.04687 8.08594 1.01562C8.03125 0.992187 7.96094 1.00781 7.92969 1.0625L7.36719 2.09375C6.89063 1.88281 6.35938 1.76562 5.79688 1.76562C5.23438 1.76562 4.70313 1.88281 4.22656 2.09375L3.66406 1.0625C3.63281 1.00781 3.5625 0.992187 3.50781 1.01562C3.45313 1.04687 3.4375 1.11719 3.46875 1.17187L4.02344 2.19531C2.92188 2.75781 2.17969 3.83594 2.17969 5.07812H9.40625C9.40625 3.83594 8.66406 2.75781 7.57031 2.19531ZM11.2969 6.00781C11.2969 5.5625 10.9375 5.21094 10.4922 5.21094C10.0547 5.21094 9.69531 5.5625 9.69531 6.00781V9.36719C9.69531 9.8125 10.0547 10.1719 10.4922 10.1719C10.9375 10.1719 11.2969 9.8125 11.2969 9.36719V6.00781Z" fill="white"/>
</svg>
