<svg width="19" height="19" viewBox="0 0 19 19" fill="none" xmlns="http://www.w3.org/2000/svg">
<path d="M5.92265 0.269249C4.97238 0.314083 4.32345 0.465732 3.75614 0.688652C3.16901 0.917466 2.67137 1.22452 2.17623 1.72144C1.68108 2.21836 1.37618 2.71636 1.14897 3.30438C0.929084 3.87293 0.780113 4.5224 0.738136 5.4732C0.69616 6.424 0.686872 6.72962 0.691516 9.15494C0.69616 11.5803 0.706877 11.8843 0.752962 12.837C0.798332 13.7871 0.949447 14.4359 1.17237 15.0034C1.40154 15.5905 1.70824 16.088 2.20534 16.5833C2.70245 17.0786 3.20009 17.3828 3.78954 17.6103C4.35756 17.8299 5.00721 17.9796 5.95784 18.0212C6.90847 18.0628 7.21445 18.0724 9.63907 18.0678C12.0637 18.0631 12.369 18.0524 13.3216 18.0072C14.2741 17.962 14.9195 17.8099 15.4872 17.588C16.0743 17.3583 16.5721 17.0521 17.0671 16.5549C17.5621 16.0576 17.8668 15.5592 18.0938 14.9709C18.3139 14.4028 18.4634 13.7532 18.5046 12.8033C18.5463 11.85 18.5561 11.5456 18.5514 9.12065C18.5468 6.69569 18.5359 6.39167 18.4907 5.43926C18.4455 4.48686 18.2942 3.84007 18.0715 3.27223C17.842 2.6851 17.5356 2.188 17.0387 1.69232C16.5418 1.19665 16.043 0.892101 15.4548 0.66561C14.8865 0.445727 14.2372 0.295863 13.2865 0.254781C12.3359 0.213698 12.0299 0.203159 9.60442 0.207803C7.17891 0.212447 6.87525 0.222807 5.92265 0.269249ZM6.02697 16.4145C5.15619 16.3766 4.68337 16.2319 4.36828 16.1108C3.95102 15.9501 3.65379 15.7557 3.33977 15.4447C3.02575 15.1338 2.83284 14.8355 2.66994 14.4191C2.54758 14.104 2.40022 13.6317 2.35949 12.761C2.31519 11.8198 2.30591 11.5372 2.30073 9.1528C2.29555 6.76838 2.30466 6.48616 2.34592 5.54465C2.38307 4.67459 2.52865 4.20124 2.64958 3.88633C2.81034 3.46854 3.00396 3.17184 3.31566 2.85801C3.62736 2.54417 3.92476 2.3509 4.34149 2.188C4.65622 2.06511 5.1285 1.919 5.99893 1.87756C6.9408 1.8329 7.22303 1.82397 9.6071 1.81879C11.9912 1.81361 12.2741 1.82254 13.2163 1.86398C14.0864 1.90185 14.5599 2.04599 14.8745 2.16764C15.2919 2.3284 15.589 2.52149 15.9028 2.83372C16.2167 3.14595 16.4101 3.44228 16.573 3.85989C16.6961 4.17373 16.8422 4.64583 16.8833 5.51679C16.9281 6.45866 16.9383 6.74106 16.9426 9.12494C16.9469 11.5088 16.9385 11.7919 16.8972 12.7331C16.8592 13.6039 16.7148 14.0769 16.5936 14.3923C16.4328 14.8094 16.239 15.1068 15.9271 15.4204C15.6152 15.7341 15.3182 15.9274 14.9013 16.0903C14.5869 16.213 14.1141 16.3595 13.2444 16.4009C12.3025 16.4452 12.0203 16.4545 9.63532 16.4597C7.25036 16.4648 6.96902 16.4552 6.02715 16.4145M13.3078 4.3645C13.3082 4.57648 13.3714 4.7836 13.4894 4.95965C13.6075 5.13571 13.7751 5.2728 13.9711 5.35357C14.1671 5.43435 14.3827 5.4552 14.5905 5.41347C14.7983 5.37174 14.9891 5.26932 15.1388 5.11915C15.2884 4.96898 15.3901 4.77781 15.4311 4.56982C15.472 4.36184 15.4504 4.14637 15.3689 3.95068C15.2874 3.75499 15.1497 3.58786 14.9732 3.47044C14.7967 3.35301 14.5894 3.29056 14.3774 3.29099C14.0932 3.29155 13.8209 3.40496 13.6203 3.60628C13.4197 3.80759 13.3073 4.08032 13.3078 4.3645ZM5.03579 9.14673C5.04079 11.6796 7.09781 13.7282 9.63014 13.7234C12.1625 13.7185 14.2125 11.6617 14.2077 9.12887C14.2029 6.59602 12.1453 4.54687 9.61264 4.55187C7.07995 4.55687 5.03097 6.61423 5.03579 9.14673ZM6.64447 9.14351C6.6433 8.5547 6.81677 7.97877 7.14293 7.48855C7.46909 6.99832 7.93329 6.61582 8.47683 6.38942C9.02038 6.16302 9.61886 6.10287 10.1966 6.2166C10.7743 6.33033 11.3053 6.61282 11.7225 7.02835C12.1397 7.44387 12.4243 7.97377 12.5403 8.55104C12.6563 9.12831 12.5985 9.72702 12.3743 10.2715C12.15 10.8159 11.7694 11.2816 11.2805 11.6097C10.7915 11.9378 10.2163 12.1135 9.62746 12.1147C9.23649 12.1155 8.84919 12.0393 8.48767 11.8904C8.12616 11.7416 7.79751 11.5229 7.5205 11.247C7.2435 10.9711 7.02356 10.6433 6.87324 10.2824C6.72293 9.92148 6.64519 9.53448 6.64447 9.14351Z" fill="#0DD0BA"/>
</svg>
