<svg width="269" height="172" viewBox="0 0 269 172" fill="none" xmlns="http://www.w3.org/2000/svg">
<path d="M69.0017 86.9846C92.7412 86.9846 111.986 67.9602 111.986 44.4923C111.986 21.0245 92.7412 2 69.0017 2C45.2622 2 26.0176 21.0245 26.0176 44.4923C26.0176 67.9602 45.2622 86.9846 69.0017 86.9846Z" fill="black" fill-opacity="0.44"/>
<path d="M68.9981 79.4945C88.5436 79.4945 104.388 63.8311 104.388 44.5092C104.388 25.1874 88.5436 9.52393 68.9981 9.52393C49.4527 9.52393 33.6079 25.1874 33.6079 44.5092C33.6079 63.8311 49.4527 79.4945 68.9981 79.4945Z" fill="#0E1219"/>
<path d="M55.4237 54.8905C53.5837 54.8905 51.9637 54.4505 50.5637 53.5705C49.1837 52.6905 48.1037 51.4705 47.3237 49.9105C46.5637 48.3305 46.1837 46.4905 46.1837 44.3905C46.1837 42.1505 46.6037 40.2005 47.4437 38.5405C48.3037 36.8605 49.4937 35.5605 51.0137 34.6405C52.5537 33.7005 54.3437 33.2305 56.3837 33.2305C57.5637 33.2305 58.7337 33.4405 59.8937 33.8605C61.0737 34.2605 62.0337 34.8105 62.7737 35.5105L60.1037 38.8105C59.5237 38.3105 58.9037 37.9505 58.2437 37.7305C57.6037 37.4905 56.8637 37.3705 56.0237 37.3705C54.8837 37.3705 53.9237 37.6505 53.1437 38.2105C52.3637 38.7705 51.7737 39.5805 51.3737 40.6405C50.9737 41.7005 50.7737 43.0005 50.7737 44.5405C51.4337 43.6005 52.2337 42.8705 53.1737 42.3505C54.1137 41.8305 55.1037 41.5705 56.1437 41.5705C57.5237 41.5705 58.7437 41.8405 59.8037 42.3805C60.8637 42.9205 61.6937 43.6705 62.2937 44.6305C62.8937 45.5905 63.1937 46.6905 63.1937 47.9305C63.1937 49.2505 62.8537 50.4405 62.1737 51.5005C61.5137 52.5405 60.5937 53.3705 59.4137 53.9905C58.2537 54.5905 56.9237 54.8905 55.4237 54.8905ZM55.3637 45.1705C54.5037 45.1705 53.7037 45.3305 52.9637 45.6505C52.2437 45.9705 51.6037 46.4205 51.0437 47.0005C51.2437 47.8005 51.5337 48.5005 51.9137 49.1005C52.3137 49.6805 52.7937 50.1305 53.3537 50.4505C53.9137 50.7705 54.5237 50.9305 55.1837 50.9305C55.8437 50.9305 56.4337 50.8105 56.9537 50.5705C57.4737 50.3105 57.8837 49.9605 58.1837 49.5205C58.5037 49.0805 58.6637 48.5805 58.6637 48.0205C58.6637 47.4605 58.5237 46.9705 58.2437 46.5505C57.9637 46.1105 57.5737 45.7705 57.0737 45.5305C56.5937 45.2905 56.0237 45.1705 55.3637 45.1705ZM68.1597 54.8905C67.3997 54.8905 66.7397 54.6205 66.1797 54.0805C65.6397 53.5205 65.3697 52.8605 65.3697 52.1005C65.3697 51.3405 65.6397 50.6905 66.1797 50.1505C66.7397 49.5905 67.3997 49.3105 68.1597 49.3105C68.9197 49.3105 69.5697 49.5905 70.1097 50.1505C70.6697 50.6905 70.9497 51.3405 70.9497 52.1005C70.9497 52.8605 70.6697 53.5205 70.1097 54.0805C69.5697 54.6205 68.9197 54.8905 68.1597 54.8905ZM84.2467 54.5605V49.9105H72.4267V45.9805L83.4367 33.5605H89.1067V45.8605H91.7167V49.9105H89.1067V54.5605H84.2467ZM77.9767 45.8605H84.2467V38.8105L77.9767 45.8605Z" fill="#EBF6F5"/>
<g filter="url(#filter0_d_1_4231)">
<path fill-rule="evenodd" clip-rule="evenodd" d="M70.2061 2.01853C70.254 2.01728 70.3021 2.01721 70.3499 2.01863C78.4426 2.25821 86.311 4.76368 93.0334 9.25682C99.9438 13.869 105.353 20.3633 108.605 27.9528C111.393 34.4642 112.491 41.5611 111.799 48.5986C111.107 55.636 108.647 62.391 104.642 68.2496C99.9775 75.0809 93.4088 80.4282 85.7321 83.6436C79.145 86.3995 71.9657 87.4847 64.8465 86.8005C57.7273 86.1164 50.8939 83.6846 44.9671 79.7261C38.0567 75.1135 32.6473 68.6191 29.3944 61.0294C26.6069 54.5177 25.5094 47.4208 26.2014 40.3832C26.8935 33.3456 29.3533 26.5905 33.3572 20.7315C33.9483 19.8666 34.579 19.0111 35.2426 18.1847C35.9595 17.1041 37.1958 16.3904 38.6007 16.3904C40.8171 16.3904 42.6138 18.1666 42.6138 20.3575C42.6138 21.2789 42.296 22.1269 41.7629 22.8004L41.7709 22.8063C36.7859 28.9147 34.0495 36.5169 34.0107 44.3652C33.9719 52.2135 36.6331 59.8418 41.5575 65.998C46.4819 72.1543 53.377 76.4729 61.1112 78.2451C68.8454 80.0173 76.9593 79.1377 84.1212 75.7509C91.2832 72.364 97.0678 66.671 100.526 59.6061C103.984 52.5413 104.909 44.5242 103.151 36.8707C101.393 29.2172 97.0552 22.3818 90.8497 17.4864C85.0089 12.8787 77.8402 10.2473 70.3977 9.95664C70.3378 9.9543 70.2912 9.95197 70.2542 9.9497C70.2096 9.95115 70.1648 9.95188 70.1198 9.95188C67.9035 9.95188 66.1068 8.17574 66.1068 5.98476C66.1068 3.79377 67.9035 2.01763 70.1198 2.01763C70.1486 2.01763 70.1774 2.01793 70.2061 2.01853Z" fill="url(#paint0_angular_1_4231)"/>
</g>
<path d="M125.512 30V13.2H133.936C135.04 13.2 136.008 13.424 136.84 13.872C137.688 14.32 138.352 14.944 138.832 15.744C139.328 16.528 139.576 17.44 139.576 18.48C139.576 19.472 139.328 20.36 138.832 21.144C138.352 21.928 137.688 22.544 136.84 22.992C135.992 23.44 135.024 23.664 133.936 23.664H128.992V30H125.512ZM128.992 20.784H133.552C134.304 20.784 134.904 20.576 135.352 20.16C135.816 19.744 136.048 19.192 136.048 18.504C136.048 17.8 135.816 17.24 135.352 16.824C134.904 16.408 134.304 16.2 133.552 16.2H128.992V20.784ZM141.632 30V13.2L144.92 12.648V30H141.632ZM151.475 30.216C150.579 30.216 149.787 30.056 149.099 29.736C148.411 29.4 147.875 28.944 147.491 28.368C147.107 27.792 146.915 27.128 146.915 26.376C146.915 25.176 147.363 24.248 148.259 23.592C149.171 22.92 150.419 22.584 152.003 22.584C153.091 22.584 154.115 22.752 155.075 23.088V22.176C155.075 21.456 154.851 20.912 154.403 20.544C153.955 20.176 153.299 19.992 152.435 19.992C151.907 19.992 151.339 20.08 150.731 20.256C150.123 20.416 149.419 20.672 148.619 21.024L147.419 18.6C148.411 18.152 149.355 17.816 150.251 17.592C151.163 17.368 152.075 17.256 152.987 17.256C154.667 17.256 155.971 17.664 156.899 18.48C157.843 19.28 158.315 20.416 158.315 21.888V30H155.075V29.112C154.563 29.496 154.011 29.776 153.419 29.952C152.827 30.128 152.179 30.216 151.475 30.216ZM150.035 26.304C150.035 26.784 150.243 27.168 150.659 27.456C151.075 27.728 151.627 27.864 152.315 27.864C152.859 27.864 153.363 27.8 153.827 27.672C154.291 27.528 154.707 27.32 155.075 27.048V25.224C154.675 25.064 154.259 24.944 153.827 24.864C153.395 24.784 152.931 24.744 152.435 24.744C151.683 24.744 151.091 24.888 150.659 25.176C150.243 25.448 150.035 25.824 150.035 26.304ZM161.793 35.16C161.505 35.16 161.225 35.144 160.953 35.112C160.697 35.096 160.481 35.072 160.305 35.04V32.208C160.625 32.272 161.009 32.304 161.457 32.304C162.657 32.304 163.489 31.736 163.953 30.6L164.145 30.12L159.273 17.496H162.897L166.017 26.016L169.545 17.496H173.097L167.337 31.008C166.905 32.016 166.433 32.824 165.921 33.432C165.409 34.04 164.817 34.48 164.145 34.752C163.489 35.024 162.705 35.16 161.793 35.16ZM180.189 30.24C178.941 30.24 177.805 29.952 176.781 29.376C175.773 28.8 174.973 28.024 174.381 27.048C173.789 26.072 173.493 24.976 173.493 23.76C173.493 22.544 173.773 21.448 174.333 20.472C174.909 19.496 175.685 18.72 176.661 18.144C177.637 17.568 178.725 17.28 179.925 17.28C181.125 17.28 182.189 17.576 183.117 18.168C184.045 18.76 184.773 19.56 185.301 20.568C185.845 21.576 186.117 22.72 186.117 24V24.864H176.853C176.997 25.36 177.229 25.808 177.549 26.208C177.885 26.608 178.293 26.92 178.773 27.144C179.269 27.368 179.797 27.48 180.357 27.48C180.917 27.48 181.429 27.392 181.893 27.216C182.373 27.04 182.781 26.792 183.117 26.472L185.277 28.44C184.509 29.064 183.717 29.52 182.901 29.808C182.101 30.096 181.197 30.24 180.189 30.24ZM176.805 22.512H182.877C182.765 22.016 182.557 21.584 182.253 21.216C181.965 20.832 181.613 20.536 181.197 20.328C180.797 20.104 180.349 19.992 179.853 19.992C179.341 19.992 178.877 20.096 178.461 20.304C178.061 20.512 177.717 20.808 177.429 21.192C177.141 21.56 176.933 22 176.805 22.512ZM188.132 30V17.496H191.42V18.888C191.82 18.344 192.3 17.928 192.86 17.64C193.42 17.352 194.052 17.208 194.756 17.208C195.364 17.224 195.82 17.32 196.124 17.496V20.376C195.884 20.264 195.62 20.184 195.332 20.136C195.044 20.072 194.748 20.04 194.444 20.04C193.804 20.04 193.22 20.2 192.692 20.52C192.164 20.84 191.74 21.296 191.42 21.888V30H188.132ZM202.749 30.24C201.597 30.24 200.533 30.096 199.557 29.808C198.581 29.504 197.733 29.072 197.013 28.512L198.645 26.328C199.365 26.808 200.053 27.168 200.709 27.408C201.381 27.648 202.045 27.768 202.701 27.768C203.437 27.768 204.021 27.648 204.453 27.408C204.901 27.152 205.125 26.824 205.125 26.424C205.125 26.104 204.997 25.848 204.741 25.656C204.501 25.464 204.109 25.328 203.565 25.248L201.165 24.888C199.917 24.696 198.973 24.296 198.333 23.688C197.693 23.064 197.373 22.248 197.373 21.24C197.373 20.424 197.581 19.728 197.997 19.152C198.429 18.56 199.029 18.104 199.797 17.784C200.581 17.448 201.509 17.28 202.581 17.28C203.493 17.28 204.381 17.408 205.245 17.664C206.125 17.92 206.949 18.312 207.717 18.84L206.133 20.976C205.445 20.544 204.789 20.232 204.165 20.04C203.541 19.848 202.909 19.752 202.269 19.752C201.677 19.752 201.197 19.864 200.829 20.088C200.477 20.312 200.301 20.608 200.301 20.976C200.301 21.312 200.429 21.576 200.685 21.768C200.941 21.96 201.381 22.096 202.005 22.176L204.405 22.536C205.637 22.712 206.581 23.112 207.237 23.736C207.893 24.344 208.221 25.136 208.221 26.112C208.221 26.912 207.981 27.624 207.501 28.248C207.021 28.856 206.373 29.344 205.557 29.712C204.741 30.064 203.805 30.24 202.749 30.24Z" fill="white"/>
<path d="M126.416 53V43.448L124.4 44.296V42.888L126.992 41.8H128V53H126.416ZM129.815 53V51.88L134.359 47.048C134.669 46.728 134.909 46.44 135.079 46.184C135.25 45.928 135.367 45.688 135.431 45.464C135.506 45.2293 135.543 44.984 135.543 44.728C135.543 44.2267 135.341 43.8107 134.935 43.48C134.53 43.1493 134.018 42.984 133.399 42.984C132.887 42.984 132.407 43.0853 131.959 43.288C131.511 43.4907 131.015 43.8427 130.471 44.344L129.607 43.288C130.205 42.7333 130.818 42.3173 131.447 42.04C132.087 41.7627 132.749 41.624 133.431 41.624C134.146 41.624 134.775 41.752 135.319 42.008C135.863 42.264 136.285 42.6213 136.583 43.08C136.893 43.528 137.047 44.0453 137.047 44.632C137.047 45.0053 136.999 45.352 136.903 45.672C136.807 45.9813 136.642 46.312 136.407 46.664C136.173 47.0053 135.842 47.4 135.415 47.848L131.767 51.688L137.271 51.672V53H129.815ZM144.818 53L141.298 44.856H143.058L145.602 50.952L148.146 44.856H149.842L146.354 53H144.818ZM154.472 53.16C153.683 53.16 152.963 52.9733 152.312 52.6C151.672 52.2267 151.166 51.72 150.792 51.08C150.419 50.44 150.232 49.7253 150.232 48.936C150.232 48.1467 150.419 47.432 150.792 46.792C151.166 46.152 151.672 45.6453 152.312 45.272C152.963 44.888 153.683 44.696 154.472 44.696C155.272 44.696 155.992 44.888 156.632 45.272C157.272 45.6453 157.779 46.152 158.152 46.792C158.526 47.432 158.712 48.1467 158.712 48.936C158.712 49.7253 158.526 50.44 158.152 51.08C157.779 51.72 157.272 52.2267 156.632 52.6C155.992 52.9733 155.272 53.16 154.472 53.16ZM154.472 51.752C154.974 51.752 155.427 51.6293 155.832 51.384C156.238 51.128 156.558 50.7867 156.792 50.36C157.027 49.9333 157.144 49.4533 157.144 48.92C157.144 48.3973 157.022 47.928 156.776 47.512C156.542 47.0853 156.222 46.744 155.816 46.488C155.422 46.232 154.974 46.104 154.472 46.104C153.971 46.104 153.518 46.232 153.112 46.488C152.718 46.744 152.398 47.0853 152.152 47.512C151.918 47.928 151.8 48.3973 151.8 48.92C151.8 49.4533 151.918 49.9333 152.152 50.36C152.387 50.7867 152.707 51.128 153.112 51.384C153.518 51.6293 153.971 51.752 154.472 51.752ZM163.245 53.144C162.455 53.144 161.853 52.9627 161.437 52.6C161.021 52.2267 160.812 51.688 160.812 50.984V46.2H159.085V44.856H160.812V42.776L162.397 42.392V44.856H164.797V46.2H162.397V50.616C162.397 51.032 162.487 51.3307 162.669 51.512C162.861 51.6827 163.17 51.768 163.597 51.768C163.821 51.768 164.018 51.752 164.189 51.72C164.37 51.688 164.562 51.64 164.765 51.576V52.92C164.551 52.9947 164.301 53.048 164.013 53.08C163.735 53.1227 163.479 53.144 163.245 53.144ZM169.754 53.144C168.954 53.144 168.229 52.9573 167.578 52.584C166.938 52.2107 166.426 51.704 166.042 51.064C165.669 50.424 165.482 49.7093 165.482 48.92C165.482 48.1413 165.664 47.4373 166.026 46.808C166.389 46.168 166.88 45.6613 167.498 45.288C168.117 44.904 168.805 44.712 169.562 44.712C170.32 44.712 170.992 44.904 171.578 45.288C172.165 45.6613 172.629 46.1733 172.97 46.824C173.322 47.464 173.498 48.1893 173.498 49V49.448H167.082C167.168 49.896 167.333 50.296 167.578 50.648C167.834 51 168.154 51.2773 168.538 51.48C168.933 51.6827 169.36 51.784 169.818 51.784C170.213 51.784 170.592 51.7253 170.954 51.608C171.328 51.48 171.637 51.2987 171.882 51.064L172.906 52.072C172.426 52.4347 171.93 52.7067 171.418 52.888C170.917 53.0587 170.362 53.144 169.754 53.144ZM167.098 48.248H171.914C171.85 47.8213 171.701 47.448 171.466 47.128C171.242 46.7973 170.96 46.5413 170.618 46.36C170.288 46.168 169.925 46.072 169.53 46.072C169.125 46.072 168.752 46.1627 168.41 46.344C168.069 46.5253 167.781 46.7813 167.546 47.112C167.322 47.432 167.173 47.8107 167.098 48.248ZM177.9 53.16C177.196 53.16 176.535 53.0587 175.916 52.856C175.308 52.6427 174.78 52.344 174.332 51.96L175.212 50.904C175.628 51.2347 176.055 51.4907 176.492 51.672C176.94 51.8427 177.394 51.928 177.852 51.928C178.428 51.928 178.898 51.816 179.26 51.592C179.623 51.368 179.804 51.0747 179.804 50.712C179.804 50.4133 179.698 50.1787 179.484 50.008C179.271 49.8373 178.94 49.72 178.492 49.656L177.02 49.448C176.21 49.3307 175.602 49.08 175.196 48.696C174.791 48.312 174.588 47.8 174.588 47.16C174.588 46.6693 174.722 46.2427 174.988 45.88C175.255 45.5067 175.628 45.2187 176.108 45.016C176.588 44.8027 177.148 44.696 177.788 44.696C178.375 44.696 178.94 44.7813 179.484 44.952C180.028 45.1227 180.551 45.3893 181.052 45.752L180.236 46.808C179.788 46.5093 179.351 46.2907 178.924 46.152C178.508 46.0133 178.087 45.944 177.66 45.944C177.17 45.944 176.775 46.0507 176.476 46.264C176.178 46.4667 176.028 46.7333 176.028 47.064C176.028 47.3627 176.13 47.5973 176.332 47.768C176.546 47.928 176.892 48.04 177.372 48.104L178.844 48.312C179.655 48.4293 180.268 48.68 180.684 49.064C181.1 49.4373 181.308 49.944 181.308 50.584C181.308 51.0747 181.159 51.5173 180.86 51.912C180.562 52.296 180.156 52.6 179.644 52.824C179.132 53.048 178.551 53.16 177.9 53.16Z" fill="white"/>
<path d="M128.48 76.5V72.212L123.904 65.3H126.576L129.712 70.164L132.864 65.3H135.392L130.8 72.228V76.5H128.48ZM138.022 76.66C137.19 76.66 136.438 76.468 135.766 76.084C135.094 75.7 134.56 75.1827 134.166 74.532C133.771 73.8813 133.574 73.1507 133.574 72.34C133.574 71.5293 133.766 70.7987 134.15 70.148C134.544 69.4867 135.078 68.964 135.75 68.58C136.432 68.196 137.19 68.004 138.022 68.004C138.854 68.004 139.606 68.196 140.278 68.58C140.96 68.964 141.494 69.4867 141.878 70.148C142.272 70.7987 142.47 71.5293 142.47 72.34C142.47 73.1507 142.272 73.8813 141.878 74.532C141.494 75.1827 140.966 75.7 140.294 76.084C139.622 76.468 138.864 76.66 138.022 76.66ZM138.022 74.756C138.459 74.756 138.848 74.6493 139.19 74.436C139.542 74.2227 139.819 73.9347 140.022 73.572C140.235 73.1987 140.342 72.788 140.342 72.34C140.342 71.8813 140.235 71.4707 140.022 71.108C139.819 70.7453 139.542 70.4573 139.19 70.244C138.848 70.02 138.459 69.908 138.022 69.908C137.595 69.908 137.206 70.02 136.854 70.244C136.502 70.4573 136.224 70.7453 136.022 71.108C135.819 71.4707 135.718 71.8813 135.718 72.34C135.718 72.788 135.819 73.1987 136.022 73.572C136.224 73.9347 136.502 74.2227 136.854 74.436C137.206 74.6493 137.595 74.756 138.022 74.756ZM147.049 76.66C146.409 76.66 145.838 76.5213 145.337 76.244C144.846 75.956 144.457 75.5613 144.169 75.06C143.892 74.5587 143.753 73.9827 143.753 73.332V68.164H145.945V73.012C145.945 73.5453 146.1 73.972 146.409 74.292C146.729 74.612 147.156 74.772 147.689 74.772C148.052 74.772 148.377 74.7027 148.665 74.564C148.964 74.4147 149.209 74.2067 149.401 73.94V68.164H151.593V76.5H149.401V75.828C148.761 76.3827 147.977 76.66 147.049 76.66ZM153.302 76.5V68.164H155.494V69.092C155.76 68.7293 156.08 68.452 156.454 68.26C156.827 68.068 157.248 67.972 157.718 67.972C158.123 67.9827 158.427 68.0467 158.63 68.164V70.084C158.47 70.0093 158.294 69.956 158.102 69.924C157.91 69.8813 157.712 69.86 157.51 69.86C157.083 69.86 156.694 69.9667 156.342 70.18C155.99 70.3933 155.707 70.6973 155.494 71.092V76.5H153.302ZM163.052 76.5V68.164H165.244V69.092C165.51 68.7293 165.83 68.452 166.204 68.26C166.577 68.068 166.998 67.972 167.468 67.972C167.873 67.9827 168.177 68.0467 168.38 68.164V70.084C168.22 70.0093 168.044 69.956 167.852 69.924C167.66 69.8813 167.462 69.86 167.26 69.86C166.833 69.86 166.444 69.9667 166.092 70.18C165.74 70.3933 165.457 70.6973 165.244 71.092V76.5H163.052ZM172.004 76.644C171.407 76.644 170.879 76.5373 170.42 76.324C169.962 76.1 169.604 75.796 169.348 75.412C169.092 75.028 168.964 74.5853 168.964 74.084C168.964 73.284 169.263 72.6653 169.86 72.228C170.468 71.78 171.3 71.556 172.356 71.556C173.082 71.556 173.764 71.668 174.404 71.892V71.284C174.404 70.804 174.255 70.4413 173.956 70.196C173.658 69.9507 173.22 69.828 172.644 69.828C172.292 69.828 171.914 69.8867 171.508 70.004C171.103 70.1107 170.634 70.2813 170.1 70.516L169.3 68.9C169.962 68.6013 170.591 68.3773 171.188 68.228C171.796 68.0787 172.404 68.004 173.012 68.004C174.132 68.004 175.002 68.276 175.62 68.82C176.25 69.3533 176.564 70.1107 176.564 71.092V76.5H174.404V75.908C174.063 76.164 173.695 76.3507 173.3 76.468C172.906 76.5853 172.474 76.644 172.004 76.644ZM171.044 74.036C171.044 74.356 171.183 74.612 171.46 74.804C171.738 74.9853 172.106 75.076 172.564 75.076C172.927 75.076 173.263 75.0333 173.572 74.948C173.882 74.852 174.159 74.7133 174.404 74.532V73.316C174.138 73.2093 173.86 73.1293 173.572 73.076C173.284 73.0227 172.975 72.996 172.644 72.996C172.143 72.996 171.748 73.092 171.46 73.284C171.183 73.4653 171.044 73.716 171.044 74.036ZM181.941 76.628C181.013 76.628 180.309 76.42 179.829 76.004C179.36 75.5773 179.125 74.9587 179.125 74.148V69.988H177.413V68.164H179.125V66.036L181.317 65.54V68.164H183.701V69.988H181.317V73.7C181.317 74.084 181.402 74.3613 181.573 74.532C181.744 74.692 182.042 74.772 182.469 74.772C182.682 74.772 182.874 74.7613 183.045 74.74C183.226 74.708 183.424 74.6547 183.637 74.58V76.388C183.413 76.4627 183.13 76.5213 182.789 76.564C182.458 76.6067 182.176 76.628 181.941 76.628ZM184.77 76.5V68.164H186.962V76.5H184.77ZM185.858 67.172C185.517 67.172 185.224 67.0493 184.978 66.804C184.733 66.5587 184.61 66.2653 184.61 65.924C184.61 65.572 184.733 65.2787 184.978 65.044C185.224 64.7987 185.517 64.676 185.858 64.676C186.21 64.676 186.504 64.7987 186.738 65.044C186.984 65.2787 187.106 65.572 187.106 65.924C187.106 66.2653 186.984 66.5587 186.738 66.804C186.504 67.0493 186.21 67.172 185.858 67.172ZM188.677 76.5V68.164H190.869V68.852C191.498 68.2867 192.277 68.004 193.205 68.004C193.855 68.004 194.426 68.148 194.917 68.436C195.418 68.7133 195.807 69.1027 196.085 69.604C196.362 70.0947 196.501 70.6707 196.501 71.332V76.5H194.309V71.652C194.309 71.108 194.154 70.6813 193.845 70.372C193.535 70.052 193.114 69.892 192.581 69.892C192.207 69.892 191.877 69.9667 191.589 70.116C191.301 70.2547 191.061 70.4573 190.869 70.724V76.5H188.677ZM202.353 79.924C201.713 79.924 201.094 79.8547 200.497 79.716C199.9 79.588 199.361 79.4013 198.881 79.156L199.649 77.46C200.108 77.684 200.556 77.8493 200.993 77.956C201.43 78.0627 201.868 78.116 202.305 78.116C202.956 78.116 203.446 77.9773 203.777 77.7C204.118 77.4227 204.289 77.0067 204.289 76.452V75.796C203.606 76.2973 202.844 76.548 202.001 76.548C201.212 76.548 200.497 76.3613 199.857 75.988C199.228 75.604 198.721 75.0867 198.337 74.436C197.964 73.7853 197.777 73.0653 197.777 72.276C197.777 71.4867 197.964 70.772 198.337 70.132C198.721 69.492 199.238 68.9853 199.889 68.612C200.54 68.228 201.265 68.036 202.065 68.036C202.47 68.036 202.865 68.0947 203.249 68.212C203.633 68.3293 203.99 68.4947 204.321 68.708V68.164H206.481V76.484C206.481 77.5827 206.124 78.4307 205.409 79.028C204.705 79.6253 203.686 79.924 202.353 79.924ZM202.337 74.692C202.742 74.692 203.11 74.628 203.441 74.5C203.772 74.3613 204.054 74.1693 204.289 73.924V70.66C204.054 70.4253 203.766 70.244 203.425 70.116C203.094 69.9773 202.737 69.908 202.353 69.908C201.894 69.908 201.484 70.0147 201.121 70.228C200.758 70.4307 200.47 70.7133 200.257 71.076C200.044 71.428 199.937 71.828 199.937 72.276C199.937 72.7347 200.038 73.1453 200.241 73.508C200.454 73.8707 200.742 74.1587 201.105 74.372C201.478 74.5853 201.889 74.692 202.337 74.692ZM209.328 76.66C208.976 76.66 208.672 76.532 208.416 76.276C208.16 76.02 208.032 75.716 208.032 75.364C208.032 75.0013 208.16 74.692 208.416 74.436C208.672 74.18 208.976 74.052 209.328 74.052C209.68 74.052 209.984 74.18 210.24 74.436C210.496 74.692 210.624 75.0013 210.624 75.364C210.624 75.716 210.496 76.02 210.24 76.276C209.984 76.532 209.68 76.66 209.328 76.66ZM209.328 70.612C208.976 70.612 208.672 70.484 208.416 70.228C208.16 69.972 208.032 69.668 208.032 69.316C208.032 68.9533 208.16 68.644 208.416 68.388C208.672 68.132 208.976 68.004 209.328 68.004C209.68 68.004 209.984 68.132 210.24 68.388C210.496 68.644 210.624 68.9533 210.624 69.316C210.624 69.668 210.496 69.972 210.24 70.228C209.984 70.484 209.68 70.612 209.328 70.612Z" fill="white"/>
<path d="M219.7 78.22C217.767 78.22 216.093 77.5933 214.68 76.34L216.24 74.52C216.84 75.0267 217.42 75.3933 217.98 75.62C218.54 75.8467 219.153 75.96 219.82 75.96C220.367 75.96 220.84 75.86 221.24 75.66C221.64 75.46 221.953 75.18 222.18 74.82C222.42 74.46 222.54 74.04 222.54 73.56C222.54 72.88 222.273 72.32 221.74 71.88C221.22 71.44 220.54 71.22 219.7 71.22C219.287 71.22 218.867 71.28 218.44 71.4C218.013 71.5067 217.58 71.68 217.14 71.92L215.32 71.38L215.64 64H224.46V66.24H217.84L217.68 69.86C218.133 69.6333 218.593 69.4667 219.06 69.36C219.527 69.24 220.013 69.18 220.52 69.18C221.467 69.18 222.287 69.36 222.98 69.72C223.687 70.0667 224.233 70.56 224.62 71.2C225.007 71.84 225.2 72.5867 225.2 73.44C225.2 74.3867 224.967 75.22 224.5 75.94C224.047 76.66 223.407 77.22 222.58 77.62C221.753 78.02 220.793 78.22 219.7 78.22ZM228.414 78.2C227.974 78.2 227.594 78.04 227.274 77.72C226.954 77.4 226.794 77.02 226.794 76.58C226.794 76.1267 226.954 75.74 227.274 75.42C227.594 75.1 227.974 74.94 228.414 74.94C228.854 74.94 229.234 75.1 229.554 75.42C229.874 75.74 230.034 76.1267 230.034 76.58C230.034 77.02 229.874 77.4 229.554 77.72C229.234 78.04 228.854 78.2 228.414 78.2ZM231.894 78V76.12L237.734 70.2C238.014 69.9067 238.234 69.6333 238.394 69.38C238.567 69.1267 238.687 68.88 238.754 68.64C238.834 68.3867 238.874 68.1333 238.874 67.88C238.874 67.36 238.654 66.9267 238.214 66.58C237.787 66.2333 237.241 66.06 236.574 66.06C235.934 66.06 235.341 66.1933 234.794 66.46C234.247 66.7133 233.647 67.1533 232.994 67.78L231.514 65.98C232.301 65.2467 233.121 64.7 233.974 64.34C234.827 63.9667 235.721 63.78 236.654 63.78C237.601 63.78 238.434 63.9467 239.154 64.28C239.874 64.6133 240.434 65.0733 240.834 65.66C241.234 66.2467 241.434 66.9333 241.434 67.72C241.434 68.1733 241.367 68.6 241.234 69C241.114 69.4 240.914 69.8067 240.634 70.22C240.354 70.62 239.981 71.0533 239.514 71.52L235.274 75.78L241.654 75.76V78H231.894Z" fill="#F9B936"/>
<g clip-path="url(#clip0_1_4231)">
<rect x="-0.472656" y="137" width="293" height="35" fill="#EBF6F5"/>
<rect x="-0.472656" y="137" width="198" height="35" fill="url(#paint1_linear_1_4231)"/>
<rect opacity="0.2" x="51" y="137" width="1" height="35" fill="white"/>
<path d="M60.3042 158.5V151.768L58.6602 152.452V151.012L60.9042 150.1H61.9482V158.5H60.3042Z" fill="white"/>
<rect opacity="0.2" x="69" y="137" width="1" height="35" fill="white"/>
<path d="M76.6485 158.5V157.372L80.1525 153.82C80.3205 153.644 80.4525 153.48 80.5485 153.328C80.6525 153.176 80.7245 153.028 80.7645 152.884C80.8125 152.732 80.8365 152.58 80.8365 152.428C80.8365 152.116 80.7045 151.856 80.4405 151.648C80.1845 151.44 79.8565 151.336 79.4565 151.336C79.0725 151.336 78.7165 151.416 78.3885 151.576C78.0605 151.728 77.7005 151.992 77.3085 152.368L76.4205 151.288C76.8925 150.848 77.3845 150.52 77.8965 150.304C78.4085 150.08 78.9445 149.968 79.5045 149.968C80.0725 149.968 80.5725 150.068 81.0045 150.268C81.4365 150.468 81.7725 150.744 82.0125 151.096C82.2525 151.448 82.3725 151.86 82.3725 152.332C82.3725 152.604 82.3325 152.86 82.2525 153.1C82.1805 153.34 82.0605 153.584 81.8925 153.832C81.7245 154.072 81.5005 154.332 81.2205 154.612L78.6765 157.168L82.5045 157.156V158.5H76.6485Z" fill="white"/>
<rect opacity="0.2" x="89" y="137" width="1" height="35" fill="white"/>
<path d="M99.8907 158.632C99.2427 158.632 98.6387 158.52 98.0787 158.296C97.5267 158.064 97.0627 157.74 96.6867 157.324L97.7427 156.34C98.0627 156.684 98.3787 156.924 98.6907 157.06C99.0107 157.188 99.4027 157.252 99.8667 157.252C100.203 157.252 100.495 157.204 100.743 157.108C100.999 157.004 101.195 156.86 101.331 156.676C101.475 156.492 101.547 156.28 101.547 156.04C101.547 155.816 101.491 155.624 101.379 155.464C101.267 155.304 101.115 155.18 100.923 155.092C100.731 154.996 100.503 154.948 100.239 154.948H99.1827V153.652H100.095C100.471 153.652 100.767 153.556 100.983 153.364C101.199 153.164 101.307 152.892 101.307 152.548C101.307 152.324 101.243 152.124 101.115 151.948C100.987 151.764 100.811 151.62 100.587 151.516C100.371 151.412 100.123 151.36 99.8427 151.36C99.4267 151.36 99.0667 151.432 98.7627 151.576C98.4667 151.72 98.1547 151.976 97.8267 152.344L96.7587 151.36C97.1507 150.92 97.6187 150.58 98.1627 150.34C98.7147 150.092 99.2947 149.968 99.9027 149.968C100.487 149.968 101.003 150.072 101.451 150.28C101.899 150.48 102.251 150.76 102.507 151.12C102.763 151.48 102.891 151.892 102.891 152.356C102.891 152.804 102.743 153.204 102.447 153.556C102.151 153.9 101.767 154.14 101.295 154.276C101.855 154.388 102.299 154.612 102.627 154.948C102.963 155.284 103.131 155.688 103.131 156.16C103.131 156.632 102.991 157.056 102.711 157.432C102.431 157.808 102.047 158.104 101.559 158.32C101.079 158.528 100.523 158.632 99.8907 158.632Z" fill="white"/>
<rect opacity="0.2" x="110" y="137" width="1" height="35" fill="white"/>
<path d="M122.527 158.5V156.532H117.787V155.212L122.275 150.1H124.171V155.152H125.203V156.532H124.171V158.5H122.527ZM119.683 155.152H122.527V151.924L119.683 155.152Z" fill="white"/>
<rect opacity="0.2" x="132" y="137" width="1" height="35" fill="white"/>
<path d="M142.805 158.632C141.645 158.632 140.641 158.256 139.793 157.504L140.729 156.412C141.089 156.716 141.437 156.936 141.773 157.072C142.109 157.208 142.477 157.276 142.877 157.276C143.205 157.276 143.489 157.216 143.729 157.096C143.969 156.976 144.157 156.808 144.293 156.592C144.437 156.376 144.509 156.124 144.509 155.836C144.509 155.428 144.349 155.092 144.029 154.828C143.717 154.564 143.309 154.432 142.805 154.432C142.557 154.432 142.305 154.468 142.049 154.54C141.793 154.604 141.533 154.708 141.269 154.852L140.177 154.528L140.369 150.1H145.661V151.444H141.689L141.593 153.616C141.865 153.48 142.141 153.38 142.421 153.316C142.701 153.244 142.993 153.208 143.297 153.208C143.865 153.208 144.357 153.316 144.773 153.532C145.197 153.74 145.525 154.036 145.757 154.42C145.989 154.804 146.105 155.252 146.105 155.764C146.105 156.332 145.965 156.832 145.685 157.264C145.413 157.696 145.029 158.032 144.533 158.272C144.037 158.512 143.461 158.632 142.805 158.632Z" fill="white"/>
<rect opacity="0.2" x="153" y="137" width="1" height="35" fill="white"/>
<path d="M164.278 158.632C163.566 158.632 162.942 158.456 162.406 158.104C161.87 157.752 161.45 157.268 161.146 156.652C160.85 156.028 160.702 155.304 160.702 154.48C160.702 153.576 160.866 152.788 161.194 152.116C161.53 151.436 161.994 150.908 162.586 150.532C163.186 150.156 163.886 149.968 164.686 149.968C165.126 149.968 165.562 150.04 165.994 150.184C166.426 150.328 166.786 150.528 167.074 150.784L166.186 151.912C165.954 151.728 165.706 151.592 165.442 151.504C165.178 151.416 164.886 151.372 164.566 151.372C164.078 151.372 163.662 151.496 163.318 151.744C162.974 151.992 162.71 152.348 162.526 152.812C162.35 153.268 162.258 153.828 162.25 154.492C162.53 154.108 162.866 153.812 163.258 153.604C163.65 153.388 164.062 153.28 164.494 153.28C165.046 153.28 165.534 153.392 165.958 153.616C166.382 153.832 166.714 154.136 166.954 154.528C167.194 154.912 167.314 155.352 167.314 155.848C167.314 156.376 167.182 156.852 166.918 157.276C166.654 157.692 166.294 158.024 165.838 158.272C165.382 158.512 164.862 158.632 164.278 158.632ZM164.23 154.516C163.862 154.516 163.514 154.592 163.186 154.744C162.866 154.896 162.582 155.112 162.334 155.392C162.414 155.776 162.538 156.112 162.706 156.4C162.882 156.68 163.098 156.896 163.354 157.048C163.61 157.2 163.894 157.276 164.206 157.276C164.502 157.276 164.766 157.216 164.998 157.096C165.238 156.976 165.426 156.812 165.562 156.604C165.698 156.388 165.766 156.148 165.766 155.884C165.766 155.612 165.702 155.376 165.574 155.176C165.446 154.968 165.266 154.808 165.034 154.696C164.81 154.576 164.542 154.516 164.23 154.516Z" fill="white"/>
<rect opacity="0.2" x="174" y="137" width="1" height="35" fill="white"/>
<path d="M182.662 158.5L186.43 151.48H181.726V150.1H188.122V151.276L184.534 158.5H182.662Z" fill="white"/>
<rect opacity="0.2" x="195" y="137" width="1" height="35" fill="white"/>
<path d="M205.971 158.632C205.347 158.632 204.795 158.528 204.315 158.32C203.835 158.104 203.459 157.812 203.187 157.444C202.915 157.068 202.779 156.64 202.779 156.16C202.779 155.848 202.847 155.56 202.983 155.296C203.127 155.024 203.327 154.792 203.583 154.6C203.847 154.4 204.143 154.252 204.471 154.156C204.047 154.004 203.703 153.764 203.439 153.436C203.175 153.108 203.043 152.74 203.043 152.332C203.043 151.884 203.171 151.484 203.427 151.132C203.683 150.772 204.031 150.488 204.471 150.28C204.919 150.072 205.419 149.968 205.971 149.968C206.531 149.968 207.031 150.072 207.471 150.28C207.911 150.488 208.259 150.772 208.515 151.132C208.771 151.484 208.899 151.884 208.899 152.332C208.899 152.74 208.767 153.108 208.503 153.436C208.239 153.764 207.895 154.004 207.471 154.156C207.975 154.308 208.383 154.564 208.695 154.924C209.007 155.276 209.163 155.688 209.163 156.16C209.163 156.64 209.027 157.068 208.755 157.444C208.491 157.812 208.115 158.104 207.627 158.32C207.147 158.528 206.595 158.632 205.971 158.632ZM205.971 153.604C206.235 153.604 206.471 153.556 206.679 153.46C206.895 153.356 207.063 153.216 207.183 153.04C207.303 152.864 207.363 152.664 207.363 152.44C207.363 152.216 207.303 152.016 207.183 151.84C207.063 151.656 206.895 151.516 206.679 151.42C206.471 151.316 206.235 151.264 205.971 151.264C205.707 151.264 205.467 151.316 205.251 151.42C205.043 151.516 204.879 151.652 204.759 151.828C204.639 152.004 204.579 152.208 204.579 152.44C204.579 152.664 204.639 152.864 204.759 153.04C204.879 153.216 205.043 153.356 205.251 153.46C205.467 153.556 205.707 153.604 205.971 153.604ZM205.971 157.324C206.291 157.324 206.571 157.272 206.811 157.168C207.051 157.056 207.239 156.904 207.375 156.712C207.511 156.512 207.579 156.292 207.579 156.052C207.579 155.804 207.511 155.584 207.375 155.392C207.239 155.2 207.051 155.048 206.811 154.936C206.571 154.824 206.291 154.768 205.971 154.768C205.659 154.768 205.379 154.824 205.131 154.936C204.891 155.048 204.703 155.2 204.567 155.392C204.431 155.584 204.363 155.804 204.363 156.052C204.363 156.292 204.431 156.512 204.567 156.712C204.703 156.904 204.891 157.056 205.131 157.168C205.379 157.272 205.659 157.324 205.971 157.324Z" fill="#707070"/>
<rect x="216" y="137" width="1" height="35" fill="#707070" fill-opacity="0.15"/>
<path d="M226.726 149.968C227.438 149.968 228.062 150.144 228.598 150.496C229.142 150.84 229.562 151.324 229.858 151.948C230.162 152.572 230.314 153.296 230.314 154.12C230.314 155.016 230.146 155.804 229.81 156.484C229.482 157.164 229.018 157.692 228.418 158.068C227.818 158.444 227.118 158.632 226.318 158.632C225.886 158.632 225.45 158.56 225.01 158.416C224.578 158.264 224.218 158.064 223.93 157.816L224.818 156.676C225.05 156.86 225.298 156.996 225.562 157.084C225.834 157.172 226.126 157.216 226.438 157.216C226.934 157.216 227.35 157.096 227.686 156.856C228.03 156.608 228.29 156.252 228.466 155.788C228.65 155.316 228.746 154.752 228.754 154.096C228.474 154.48 228.138 154.78 227.746 154.996C227.362 155.204 226.95 155.308 226.51 155.308C225.966 155.308 225.482 155.2 225.058 154.984C224.634 154.768 224.302 154.468 224.062 154.084C223.822 153.692 223.702 153.248 223.702 152.752C223.702 152.216 223.83 151.74 224.086 151.324C224.35 150.908 224.71 150.58 225.166 150.34C225.63 150.092 226.15 149.968 226.726 149.968ZM226.774 154.084C227.142 154.084 227.486 154.008 227.806 153.856C228.134 153.696 228.422 153.48 228.67 153.208C228.598 152.824 228.474 152.492 228.298 152.212C228.122 151.924 227.906 151.704 227.65 151.552C227.402 151.392 227.118 151.312 226.798 151.312C226.502 151.312 226.234 151.372 225.994 151.492C225.762 151.612 225.578 151.78 225.442 151.996C225.306 152.204 225.238 152.444 225.238 152.716C225.238 152.98 225.302 153.216 225.43 153.424C225.566 153.632 225.75 153.796 225.982 153.916C226.214 154.028 226.478 154.084 226.774 154.084Z" fill="#707070"/>
<rect x="237" y="137" width="1" height="35" fill="#707070" fill-opacity="0.15"/>
<path d="M245.947 158.5V151.768L244.303 152.452V151.012L246.547 150.1H247.591V158.5H245.947ZM252.838 158.632C252.11 158.632 251.466 158.452 250.906 158.092C250.354 157.724 249.922 157.216 249.61 156.568C249.306 155.912 249.154 155.156 249.154 154.3C249.154 153.436 249.306 152.68 249.61 152.032C249.922 151.384 250.354 150.88 250.906 150.52C251.466 150.152 252.11 149.968 252.838 149.968C253.574 149.968 254.218 150.152 254.77 150.52C255.33 150.88 255.762 151.384 256.066 152.032C256.378 152.68 256.534 153.436 256.534 154.3C256.534 155.156 256.378 155.912 256.066 156.568C255.762 157.216 255.33 157.724 254.77 158.092C254.218 158.452 253.574 158.632 252.838 158.632ZM252.838 157.204C253.27 157.204 253.642 157.088 253.954 156.856C254.266 156.624 254.506 156.288 254.674 155.848C254.85 155.408 254.938 154.892 254.938 154.3C254.938 153.7 254.85 153.184 254.674 152.752C254.506 152.312 254.266 151.976 253.954 151.744C253.642 151.512 253.27 151.396 252.838 151.396C252.414 151.396 252.046 151.512 251.734 151.744C251.422 151.976 251.178 152.312 251.002 152.752C250.834 153.184 250.75 153.7 250.75 154.3C250.75 154.892 250.834 155.408 251.002 155.848C251.178 156.288 251.422 156.624 251.734 156.856C252.046 157.088 252.414 157.204 252.838 157.204Z" fill="#707070"/>
<path d="M12.108 158V149.6H13.764L17.94 155.024V149.6H19.572V158H18.036L13.752 152.384V158H12.108ZM24.5362 158.12C23.9122 158.12 23.3482 157.976 22.8442 157.688C22.3402 157.4 21.9402 157.012 21.6442 156.524C21.3482 156.036 21.2002 155.488 21.2002 154.88C21.2002 154.272 21.3442 153.724 21.6322 153.236C21.9282 152.74 22.3282 152.348 22.8322 152.06C23.3442 151.772 23.9122 151.628 24.5362 151.628C25.1602 151.628 25.7242 151.772 26.2282 152.06C26.7402 152.348 27.1402 152.74 27.4282 153.236C27.7242 153.724 27.8722 154.272 27.8722 154.88C27.8722 155.488 27.7242 156.036 27.4282 156.524C27.1402 157.012 26.7442 157.4 26.2402 157.688C25.7362 157.976 25.1682 158.12 24.5362 158.12ZM24.5362 156.692C24.8642 156.692 25.1562 156.612 25.4122 156.452C25.6762 156.292 25.8842 156.076 26.0362 155.804C26.1962 155.524 26.2762 155.216 26.2762 154.88C26.2762 154.536 26.1962 154.228 26.0362 153.956C25.8842 153.684 25.6762 153.468 25.4122 153.308C25.1562 153.14 24.8642 153.056 24.5362 153.056C24.2162 153.056 23.9242 153.14 23.6602 153.308C23.3962 153.468 23.1882 153.684 23.0362 153.956C22.8842 154.228 22.8082 154.536 22.8082 154.88C22.8082 155.216 22.8842 155.524 23.0362 155.804C23.1882 156.076 23.3962 156.292 23.6602 156.452C23.9242 156.612 24.2162 156.692 24.5362 156.692ZM32.1007 158.096C31.4047 158.096 30.8767 157.94 30.5167 157.628C30.1647 157.308 29.9887 156.844 29.9887 156.236V153.116H28.7047V151.748H29.9887V150.152L31.6327 149.78V151.748H33.4207V153.116H31.6327V155.9C31.6327 156.188 31.6967 156.396 31.8247 156.524C31.9527 156.644 32.1767 156.704 32.4967 156.704C32.6567 156.704 32.8007 156.696 32.9287 156.68C33.0647 156.656 33.2127 156.616 33.3727 156.56V157.916C33.2047 157.972 32.9927 158.016 32.7367 158.048C32.4887 158.08 32.2767 158.096 32.1007 158.096ZM37.7123 158.12C37.0883 158.12 36.5203 157.976 36.0083 157.688C35.5043 157.4 35.1043 157.012 34.8083 156.524C34.5123 156.036 34.3643 155.488 34.3643 154.88C34.3643 154.272 34.5043 153.724 34.7843 153.236C35.0723 152.748 35.4603 152.36 35.9483 152.072C36.4363 151.784 36.9803 151.64 37.5803 151.64C38.1803 151.64 38.7123 151.788 39.1763 152.084C39.6403 152.38 40.0043 152.78 40.2683 153.284C40.5403 153.788 40.6763 154.36 40.6763 155V155.432H36.0443C36.1163 155.68 36.2323 155.904 36.3923 156.104C36.5603 156.304 36.7643 156.46 37.0043 156.572C37.2523 156.684 37.5163 156.74 37.7963 156.74C38.0763 156.74 38.3323 156.696 38.5643 156.608C38.8043 156.52 39.0083 156.396 39.1763 156.236L40.2563 157.22C39.8723 157.532 39.4763 157.76 39.0683 157.904C38.6683 158.048 38.2163 158.12 37.7123 158.12ZM36.0203 154.256H39.0563C39.0003 154.008 38.8963 153.792 38.7443 153.608C38.6003 153.416 38.4243 153.268 38.2163 153.164C38.0163 153.052 37.7923 152.996 37.5443 152.996C37.2883 152.996 37.0563 153.048 36.8483 153.152C36.6403 153.256 36.4643 153.404 36.3203 153.596C36.1843 153.78 36.0843 154 36.0203 154.256Z" fill="white"/>
</g>
<defs>
<filter id="filter0_d_1_4231" x="22.463" y="0.249097" width="93.0739" height="92.0561" filterUnits="userSpaceOnUse" color-interpolation-filters="sRGB">
<feFlood flood-opacity="0" result="BackgroundImageFix"/>
<feColorMatrix in="SourceAlpha" type="matrix" values="0 0 0 0 0 0 0 0 0 0 0 0 0 0 0 0 0 0 127 0" result="hardAlpha"/>
<feOffset dy="1.76848"/>
<feGaussianBlur stdDeviation="1.76848"/>
<feColorMatrix type="matrix" values="0 0 0 0 0 0 0 0 0 0 0 0 0 0 0 0 0 0 0.514 0"/>
<feBlend mode="normal" in2="BackgroundImageFix" result="effect1_dropShadow_1_4231"/>
<feBlend mode="normal" in="SourceGraphic" in2="effect1_dropShadow_1_4231" result="shape"/>
</filter>
<radialGradient id="paint0_angular_1_4231" cx="0" cy="0" r="1" gradientUnits="userSpaceOnUse" gradientTransform="translate(70.7168 44.3157) rotate(-130.927) scale(38.5052 38.5703)">
<stop stop-color="#DC4A19"/>
<stop offset="0.121606" stop-color="#FCC539"/>
<stop offset="1" stop-color="#DC4A19"/>
</radialGradient>
<linearGradient id="paint1_linear_1_4231" x1="197.527" y1="166.402" x2="-0.472633" y2="166.402" gradientUnits="userSpaceOnUse">
<stop stop-color="#FCC539"/>
<stop offset="1" stop-color="#DC4A19"/>
</linearGradient>
<clipPath id="clip0_1_4231">
<rect y="137" width="269" height="35" rx="17" fill="white"/>
</clipPath>
</defs>
</svg>
