<svg aria-hidden="true" style="position: absolute; width: 0; height: 0; overflow: hidden;" version="1.1" xmlns="http://www.w3.org/2000/svg" xmlns:xlink="http://www.w3.org/1999/xlink">
<defs>
<symbol id="icon-android" viewBox="0 0 32 32">
<path d="M7.809 9.926c-0.309 0-0.559-0.265-0.559-0.574s0.25-0.574 0.559-0.574c0.324 0 0.574 0.265 0.574 0.574s-0.25 0.574-0.574 0.574zM14.015 9.926c-0.324 0-0.573-0.265-0.573-0.574s0.25-0.574 0.573-0.574c0.309 0 0.559 0.265 0.559 0.574s-0.25 0.574-0.559 0.574zM2.074 12.632c-0.838 0-1.515 0.676-1.515 1.5v6.324c0 0.838 0.676 1.515 1.515 1.515s1.5-0.677 1.5-1.515v-6.324c0-0.824-0.676-1.5-1.5-1.5zM17.662 12.912h-13.5v9.794c0 0.897 0.721 1.618 1.618 1.618h1.088l0.015 3.338c0 0.838 0.676 1.515 1.5 1.515 0.838 0 1.515-0.677 1.515-1.515v-3.338h2.029v3.338c0 0.838 0.676 1.515 1.515 1.515s1.515-0.677 1.515-1.515v-3.338h1.103c0.882 0 1.603-0.721 1.603-1.618v-9.794zM14.25 6.956l1.044-1.926c0.059-0.103 0.029-0.235-0.074-0.294-0.103-0.044-0.235-0.015-0.294 0.088l-1.059 1.941c-0.897-0.397-1.897-0.618-2.956-0.618s-2.059 0.221-2.956 0.618l-1.059-1.941c-0.059-0.103-0.191-0.132-0.294-0.088-0.103 0.059-0.132 0.191-0.074 0.294l1.044 1.926c-2.074 1.059-3.471 3.088-3.471 5.426h13.603c0-2.338-1.397-4.368-3.456-5.426zM21.265 14.132c0-0.838-0.677-1.5-1.515-1.5-0.824 0-1.5 0.662-1.5 1.5v6.324c0 0.838 0.677 1.515 1.5 1.515 0.838 0 1.515-0.677 1.515-1.515v-6.324z"></path>
</symbol>
<symbol id="icon-apple" viewBox="0 0 32 32">
<path fill="#fff" style="fill: var(--color1, #fff)" d="M21.073 20.691c-0.868-0.265-1.647-0.882-2.323-1.853s-1.015-2.074-1.015-3.279c0-1.118 0.324-2.132 0.956-3.044 0.353-0.515 0.912-1.088 1.676-1.735-0.5-0.618-1.015-1.118-1.529-1.471-0.912-0.632-1.956-0.956-3.132-0.956-0.721 0-1.574 0.176-2.544 0.5-0.971 0.338-1.676 0.5-2.103 0.5-0.338 0-1.015-0.147-2.029-0.441-1.029-0.294-1.882-0.441-2.603-0.441-1.691 0-3.074 0.706-4.176 2.118-1.103 1.426-1.662 3.25-1.662 5.5 0 2.412 0.735 4.868 2.162 7.397 1.456 2.529 2.912 3.809 4.426 3.809 0.485 0 1.132-0.162 1.941-0.5 0.794-0.324 1.5-0.485 2.088-0.485 0.603 0 1.353 0.147 2.221 0.471 0.882 0.309 1.559 0.471 2.059 0.471 1.25 0 2.515-0.956 3.779-2.882 0.853-1.279 1.441-2.515 1.809-3.676zM15.544 3.441c0-0.103-0.015-0.191-0.015-0.294-0.015-0.088-0.044-0.191-0.074-0.324-1.706 0.397-2.941 1.118-3.676 2.176s-1.118 2.324-1.147 3.779c0.691-0.059 1.191-0.147 1.529-0.25 0.529-0.176 1.059-0.529 1.588-1.059 0.618-0.618 1.074-1.294 1.368-2.029 0.279-0.721 0.426-1.397 0.426-2z"></path>
</symbol>
<symbol id="icon-burger" viewBox="0 0 32 32">
<path fill="#2a86e5" style="fill: var(--color2, #2a86e5)" d="M31.298 25.75c0-0.566-0.469-1.036-1.036-1.036h-29.227c-0.566 0-1.036 0.469-1.036 1.036v2.071c0 0.566 0.469 1.036 1.036 1.036h29.227c0.566 0 1.036-0.469 1.036-1.036v-2.071zM31.298 14.624c0-0.566-0.469-1.036-1.036-1.036h-29.227c-0.566 0-1.036 0.469-1.036 1.036v2.071c0 0.566 0.469 1.036 1.036 1.036h29.227c0.566 0 1.036-0.469 1.036-1.036v-2.071zM31.298 3.497c0-0.566-0.469-1.036-1.036-1.036h-29.227c-0.566 0-1.036 0.469-1.036 1.036v2.071c0 0.566 0.469 1.036 1.036 1.036h29.227c0.566 0 1.036-0.469 1.036-1.036v-2.071z"></path>
</symbol>
<symbol id="icon-clock" viewBox="0 0 32 32">
<path fill="#b3b3b1" style="fill: var(--color3, #b3b3b1)" d="M18.462 9.231c0-0.346-0.269-0.615-0.615-0.615h-1.231c-0.346 0-0.615 0.269-0.615 0.615v6.769h-4.308c-0.346 0-0.615 0.269-0.615 0.615v1.231c0 0.346 0.269 0.615 0.615 0.615h6.154c0.346 0 0.615-0.269 0.615-0.615v-8.615zM26.462 16c0 5.769-4.692 10.462-10.462 10.462s-10.462-4.692-10.462-10.462c0-5.769 4.692-10.462 10.462-10.462s10.462 4.692 10.462 10.462zM30.769 16c0-8.154-6.615-14.769-14.769-14.769s-14.769 6.615-14.769 14.769c0 8.154 6.615 14.769 14.769 14.769s14.769-6.615 14.769-14.769z"></path>
</symbol>
<symbol id="icon-close" viewBox="0 0 32 32">
<path fill="#2a86e5" style="fill: var(--color2, #2a86e5)" d="M31.604 29.961c0.453-0.453 0.453-1.203 0-1.656l-27.298-27.298c-0.453-0.453-1.203-0.453-1.656 0l-1.656 1.656c-0.453 0.453-0.453 1.203 0 1.656l27.298 27.298c0.453 0.453 1.203 0.453 1.656 0l1.656-1.655z"></path>
<path fill="#2a86e5" style="fill: var(--color2, #2a86e5)" d="M2.65 31.617c0.453 0.453 1.203 0.453 1.656 0l27.298-27.298c0.453-0.453 0.453-1.203 0-1.656l-1.656-1.656c-0.453-0.453-1.203-0.453-1.656 0l-27.298 27.298c-0.453 0.453-0.453 1.203 0 1.656l1.656 1.656z"></path>
</symbol>
<symbol id="icon-facebook" viewBox="0 0 32 32">
<path fill="#fff" style="fill: var(--color1, #fff)" d="M23.753 1.051c-0.477-0.071-2.119-0.212-4.025-0.212-3.99 0-6.726 2.436-6.726 6.903v3.849h-4.502v5.226h4.502v13.399h5.402v-13.399h4.484l0.689-5.226h-5.173v-3.337c0-1.501 0.406-2.542 2.578-2.542h2.772v-4.661z"></path>
</symbol>
<symbol id="icon-GroupG" viewBox="0 0 32 32">
<path fill="#fff" style="fill: var(--color1, #fff)" d="M6.542 3.849v4.391l-6.059 2.182c-0.39 0.14-0.584 0.598-0.43 1.017l3.582 9.736v6.966c0 0.215 0.086 0.421 0.24 0.573s0.362 0.237 0.579 0.237h23.088c0.217 0 0.426-0.085 0.579-0.237s0.24-0.358 0.24-0.573l0.001-3.991 3.608-13.321c0.117-0.431-0.117-0.873-0.518-0.976l-5.997-1.596v-4.408c-0.001-0.213-0.088-0.417-0.241-0.568s-0.36-0.235-0.575-0.234h-17.277c-0.216 0-0.423 0.084-0.576 0.234s-0.241 0.354-0.243 0.568zM18.98 6.534l-0.62-1.686c-0.154-0.419-0.599-0.647-0.99-0.506l-9.707 3.496v-3.684h16.673v3.806l-5.355-1.425zM28.125 10.299c-0.154-0.152-0.362-0.237-0.579-0.237h-7.268l-0.831-2.258 11.364 3.024-2.448 9.038 0.002-8.993c0-0.215-0.086-0.421-0.24-0.573zM1.207 11.339l2.572-0.926c-0.094 0.134-0.145 0.294-0.145 0.46v7.065l-2.428-6.598zM17.409 5.505l1.677 4.557h-14.333l12.656-4.557zM24.094 16.872c-0.044 0.018-0.092 0.027-0.139 0.027h-6.91v-1.799h6.91c0.096 0 0.189 0.038 0.257 0.105s0.107 0.159 0.107 0.254v1.079c0 0.047-0.009 0.094-0.027 0.138s-0.045 0.083-0.079 0.117c-0.034 0.033-0.074 0.060-0.118 0.078zM24.212 23.629c-0.068 0.067-0.161 0.105-0.257 0.105h-6.91v-1.799h6.91c0.096 0 0.189 0.038 0.257 0.105s0.107 0.159 0.107 0.254v1.080c-0 0.095-0.039 0.187-0.107 0.254zM25.303 20.211c-0.068 0.067-0.161 0.105-0.257 0.105h-8v-1.799h8c0.096 0 0.189 0.038 0.257 0.105s0.107 0.159 0.107 0.254v1.079c0 0.095-0.038 0.187-0.107 0.254zM15.041 19.516c0 2.466-1.657 4.219-4.178 4.219-0.577 0.007-1.151-0.1-1.686-0.314s-1.023-0.531-1.434-0.932c-0.411-0.402-0.737-0.88-0.96-1.407s-0.337-1.093-0.337-1.664c0-0.571 0.115-1.137 0.337-1.664s0.549-1.005 0.96-1.407c0.411-0.402 0.898-0.718 1.434-0.932s1.109-0.32 1.686-0.314c1.083-0.013 2.13 0.389 2.92 1.122l-1.245 1.232c-0.45-0.425-1.052-0.657-1.674-0.647-1.426 0-2.584 1.195-2.584 2.608s1.156 2.608 2.584 2.608c1.281 0 2.159-0.716 2.353-1.705h-2.353v-1.621h4.109c0.045 0.27 0.068 0.544 0.069 0.818z"></path>
</symbol>
<symbol id="icon-instagram" viewBox="0 0 32 32">
<path fill="#fff" style="fill: var(--color1, #fff)" d="M9.374 0.112c-1.702 0.080-2.865 0.352-3.881 0.751-1.052 0.41-1.943 0.96-2.83 1.85s-1.433 1.782-1.84 2.836c-0.394 1.019-0.661 2.182-0.736 3.885s-0.092 2.251-0.084 6.596c0.008 4.345 0.028 4.89 0.11 6.596 0.081 1.702 0.352 2.864 0.751 3.881 0.411 1.052 0.96 1.943 1.851 2.83s1.782 1.432 2.838 1.84c1.018 0.393 2.181 0.662 3.884 0.736s2.251 0.092 6.595 0.084c4.344-0.008 4.891-0.028 6.597-0.109s2.863-0.354 3.88-0.751c1.052-0.411 1.944-0.96 2.831-1.851s1.432-1.784 1.839-2.838c0.394-1.018 0.662-2.181 0.736-3.883 0.075-1.708 0.092-2.253 0.084-6.597s-0.028-4.889-0.109-6.595-0.352-2.865-0.751-3.882c-0.411-1.052-0.96-1.942-1.85-2.83s-1.784-1.434-2.837-1.839c-1.018-0.394-2.181-0.662-3.884-0.736s-2.251-0.092-6.597-0.084-4.889 0.027-6.596 0.11zM9.56 29.036c-1.56-0.068-2.407-0.327-2.972-0.544-0.748-0.288-1.28-0.636-1.843-1.193s-0.908-1.092-1.2-1.837c-0.219-0.565-0.483-1.41-0.556-2.971-0.079-1.686-0.096-2.192-0.105-6.464s0.007-4.777 0.081-6.464c0.067-1.559 0.327-2.407 0.544-2.971 0.288-0.748 0.635-1.28 1.193-1.842s1.091-0.908 1.838-1.2c0.564-0.22 1.41-0.482 2.969-0.556 1.687-0.080 2.193-0.096 6.464-0.105s4.778 0.007 6.466 0.081c1.559 0.068 2.407 0.326 2.971 0.544 0.748 0.288 1.28 0.634 1.842 1.193s0.909 1.090 1.201 1.838c0.221 0.562 0.482 1.408 0.556 2.968 0.080 1.687 0.099 2.193 0.106 6.464s-0.007 4.778-0.081 6.464c-0.068 1.56-0.327 2.407-0.544 2.973-0.288 0.747-0.635 1.28-1.194 1.842s-1.091 0.908-1.838 1.2c-0.563 0.22-1.41 0.482-2.968 0.557-1.687 0.079-2.193 0.096-6.466 0.105s-4.777-0.008-6.464-0.081zM22.604 7.449c0.001 0.38 0.114 0.751 0.326 1.066s0.512 0.561 0.863 0.706 0.737 0.182 1.11 0.107c0.372-0.075 0.714-0.258 0.982-0.527s0.45-0.612 0.524-0.984 0.035-0.759-0.112-1.109c-0.146-0.351-0.393-0.65-0.709-0.86s-0.688-0.322-1.067-0.322c-0.509 0.001-0.997 0.204-1.356 0.565s-0.561 0.849-0.56 1.358zM7.785 16.016c0.009 4.538 3.694 8.208 8.231 8.199s8.209-3.694 8.201-8.231c-0.009-4.538-3.695-8.209-8.232-8.2s-8.208 3.695-8.199 8.232zM10.667 16.010c-0.002-1.055 0.309-2.087 0.893-2.965s1.416-1.563 2.39-1.969c0.974-0.406 2.046-0.513 3.081-0.31s1.986 0.71 2.734 1.454c0.747 0.744 1.257 1.694 1.465 2.728s0.104 2.107-0.297 3.082c-0.402 0.975-1.084 1.81-1.96 2.397s-1.907 0.903-2.961 0.905c-0.7 0.001-1.394-0.135-2.042-0.402s-1.236-0.658-1.733-1.153c-0.496-0.494-0.89-1.081-1.16-1.728s-0.409-1.34-0.41-2.040z"></path>
</symbol>
<symbol id="icon-network" viewBox="0 0 32 32">
<path fill="#fff" style="fill: var(--color1, #fff)" d="M27.589 5.268c-0.178-0.411-0.589-0.696-1.053-0.696h-22.857c-0.464 0-0.875 0.286-1.054 0.696-0.179 0.429-0.089 0.929 0.25 1.25l8.804 8.804v8.679c0 0.304 0.125 0.589 0.339 0.804l4.571 4.571c0.214 0.232 0.5 0.339 0.804 0.339 0.143 0 0.304-0.036 0.446-0.089 0.411-0.178 0.696-0.589 0.696-1.053v-13.25l8.803-8.804c0.339-0.321 0.429-0.821 0.25-1.25z"></path>
</symbol>
<symbol id="icon-phone" viewBox="0 0 32 32">
<path fill="#fff" style="fill: var(--color1, #fff)" d="M12.19 27.886c0 1.021-0.857 1.857-1.905 1.857s-1.905-0.836-1.905-1.857c0-1.021 0.857-1.857 1.905-1.857s1.905 0.836 1.905 1.857zM17.143 24.171c0 0.395-0.357 0.743-0.762 0.743h-12.191c-0.405 0-0.762-0.348-0.762-0.743v-16.343c0-0.395 0.357-0.743 0.762-0.743h12.191c0.405 0 0.762 0.348 0.762 0.743v16.343zM12.571 4.486c0 0.209-0.167 0.371-0.381 0.371h-3.809c-0.214 0-0.381-0.162-0.381-0.371s0.167-0.371 0.381-0.371h3.809c0.214 0 0.381 0.162 0.381 0.371zM19.429 4.114c0-1.625-1.381-2.971-3.048-2.971h-12.191c-1.667 0-3.048 1.346-3.048 2.971v23.771c0 1.625 1.381 2.971 3.048 2.971h12.191c1.667 0 3.048-1.346 3.048-2.971v-23.771z"></path>
</symbol>
<symbol id="icon-search" viewBox="0 0 32 32">
<path fill="#e1541b" style="fill: var(--color4, #e1541b)" d="M21.187 14.629c0 4.411-3.589 8-8 8s-8-3.589-8-8c0-4.411 3.589-8 8-8s8 3.589 8 8zM30.33 29.486c0-0.607-0.25-1.196-0.661-1.607l-6.125-6.125c1.446-2.089 2.214-4.589 2.214-7.125 0-6.946-5.625-12.571-12.572-12.571s-12.571 5.625-12.571 12.571c0 6.946 5.625 12.571 12.571 12.571 2.536 0 5.036-0.768 7.125-2.214l6.125 6.107c0.411 0.429 1 0.679 1.607 0.679 1.25 0 2.286-1.036 2.286-2.286z"></path>
</symbol>
<symbol id="icon-theme" viewBox="0 0 32 32">
<path fill="#183a5d" style="fill: var(--color5, #183a5d)" d="M16 0c8.837 0 16 7.163 16 16s-7.163 16-16 16c-8.837 0-16-7.163-16-16s7.163-16 16-16z"></path>
<path fill="#fff" style="fill: var(--color1, #fff)" d="M16.001 6.72c0.335 0 0.606 0.271 0.606 0.606v1.576c0 0.335-0.271 0.606-0.606 0.606s-0.606-0.271-0.606-0.606v-1.576c0-0.335 0.271-0.606 0.606-0.606zM9.437 9.437c0.237-0.237 0.62-0.237 0.857 0l1.12 1.12c0.237 0.237 0.237 0.62 0 0.857s-0.62 0.237-0.857 0l-1.12-1.12c-0.237-0.237-0.237-0.62 0-0.857zM22.566 9.437c0.237 0.237 0.237 0.62 0 0.857l-1.12 1.12c-0.237 0.237-0.62 0.237-0.857 0s-0.237-0.62 0-0.857l1.12-1.12c0.237-0.237 0.62-0.237 0.857 0zM13.474 12.219c0.748-0.5 1.628-0.767 2.527-0.767 1.207 0 2.364 0.479 3.217 1.332s1.332 2.010 1.332 3.217c0 0.9-0.267 1.779-0.767 2.527s-1.21 1.331-2.042 1.676-1.746 0.434-2.628 0.259c-0.882-0.175-1.693-0.609-2.329-1.245s-1.069-1.447-1.245-2.329-0.085-1.797 0.259-2.628c0.344-0.831 0.927-1.542 1.676-2.042zM6.72 16.001c0-0.335 0.271-0.606 0.606-0.606h1.576c0.335 0 0.606 0.271 0.606 0.606s-0.271 0.606-0.606 0.606h-1.576c-0.335 0-0.606-0.271-0.606-0.606zM22.492 16.001c0-0.335 0.271-0.606 0.606-0.606h1.576c0.335 0 0.606 0.271 0.606 0.606s-0.271 0.606-0.606 0.606h-1.576c-0.335 0-0.606-0.271-0.606-0.606zM11.414 20.588c0.237 0.237 0.237 0.62 0 0.857l-1.12 1.12c-0.237 0.237-0.62 0.237-0.857 0s-0.237-0.62 0-0.857l1.12-1.12c0.237-0.237 0.62-0.237 0.857 0zM20.588 20.588c0.237-0.237 0.62-0.237 0.857 0l1.12 1.12c0.237 0.237 0.237 0.62 0 0.857s-0.62 0.237-0.857 0l-1.12-1.12c-0.237-0.237-0.237-0.62 0-0.857zM16.001 22.492c0.335 0 0.606 0.271 0.606 0.606v1.576c0 0.335-0.271 0.606-0.606 0.606s-0.606-0.271-0.606-0.606v-1.576c0-0.335 0.271-0.606 0.606-0.606z"></path>
</symbol>
<symbol id="icon-twitter" viewBox="0 0 32 32">
<path fill="#fff" style="fill: var(--color1, #fff)" d="M30.628 6.306c-1.092 0.471-2.278 0.81-3.503 0.942 1.262-0.753 2.222-1.94 2.674-3.352-1.167 0.697-2.486 1.205-3.86 1.469-1.111-1.186-2.693-1.921-4.444-1.921-3.371 0-6.082 2.731-6.082 6.082 0 0.471 0.056 0.942 0.151 1.393-5.047-0.264-9.547-2.674-12.542-6.365-0.527 0.904-0.829 1.94-0.829 3.069 0 2.109 1.073 3.973 2.712 5.066-0.998-0.038-1.94-0.32-2.749-0.772 0 0.019 0 0.056 0 0.075 0 2.956 2.090 5.405 4.877 5.969-0.508 0.132-1.055 0.207-1.601 0.207-0.395 0-0.772-0.038-1.149-0.094 0.772 2.41 3.013 4.162 5.687 4.218-2.090 1.638-4.708 2.599-7.551 2.599-0.508 0-0.979-0.019-1.469-0.075 2.693 1.732 5.894 2.731 9.34 2.731 11.186 0 17.306-9.265 17.306-17.306 0-0.264 0-0.527-0.019-0.791 1.187-0.866 2.222-1.94 3.051-3.145z"></path>
</symbol>
<symbol id="icon-user" viewBox="0 0 32 32">
<path fill="#b3b3b1" style="fill: var(--color3, #b3b3b1)" d="M28.308 24.981c0-5.058-1.25-10.904-6.288-10.904-1.558 1.519-3.673 2.462-6.019 2.462s-4.462-0.942-6.019-2.462c-5.038 0-6.288 5.846-6.288 10.904 0 2.808 1.846 5.096 4.096 5.096h16.423c2.25 0 4.096-2.288 4.096-5.096zM23.385 7.923c0-4.077-3.308-7.385-7.385-7.385s-7.385 3.308-7.385 7.385c0 4.077 3.308 7.385 7.385 7.385s7.385-3.308 7.385-7.385z"></path>
</symbol>
<symbol id="icon-wifi" viewBox="0 0 32 32">
<path fill="#fff" style="fill: var(--color1, #fff)" d="M0 0v5.818c14.444 0 26.182 11.738 26.182 26.182h5.818c0-17.673-14.327-32-32-32zM0 10.182v5.818c8.829 0 16 7.171 16 16h5.818c0-12.044-9.775-21.818-21.818-21.818zM4.364 23.273c-1.157 0-2.267 0.46-3.086 1.278s-1.278 1.928-1.278 3.085c0 1.157 0.46 2.267 1.278 3.085s1.928 1.278 3.086 1.278 2.267-0.46 3.086-1.278c0.818-0.818 1.278-1.928 1.278-3.085s-0.46-2.267-1.278-3.085c-0.818-0.818-1.928-1.278-3.086-1.278z"></path>
</symbol>
<symbol id="icon-youtube" viewBox="0 0 32 32">
<path fill="#fff" style="fill: var(--color1, #fff)" d="M27.041 5.97c-2.367-0.637-11.861-0.637-11.861-0.637s-9.493 0-11.861 0.637c-1.306 0.35-2.335 1.383-2.684 2.694-0.634 2.377-0.634 7.335-0.634 7.335s0 4.959 0.634 7.335c0.349 1.311 1.378 2.344 2.684 2.694 2.368 0.637 11.861 0.637 11.861 0.637s9.494 0 11.861-0.637c1.306-0.351 2.335-1.383 2.684-2.694 0.634-2.377 0.634-7.335 0.634-7.335s0-4.959-0.634-7.335c-0.349-1.311-1.378-2.344-2.684-2.694zM20.006 16l-7.935 4.502v-9.004l7.935 4.502z"></path>
</symbol>
</defs>
</svg>
