<svg width="23" height="16" viewBox="0 0 23 16" fill="none" xmlns="http://www.w3.org/2000/svg">
<path fill-rule="evenodd" clip-rule="evenodd" d="M20.1963 0.939754C21.1338 1.19126 21.872 1.93233 22.1225 2.87343C22.5778 4.57908 22.5778 8.13784 22.5778 8.13784C22.5778 8.13784 22.5778 11.6965 22.1225 13.4024C21.872 14.3433 21.1338 15.0844 20.1963 15.336C18.4972 15.793 11.6839 15.793 11.6839 15.793C11.6839 15.793 4.87071 15.793 3.17158 15.336C2.23417 15.0844 1.49586 14.3433 1.24532 13.4024C0.790039 11.6965 0.790039 8.13784 0.790039 8.13784C0.790039 8.13784 0.790039 4.57908 1.24532 2.87343C1.49586 1.93233 2.23417 1.19126 3.17158 0.939754C4.87071 0.482666 11.6839 0.482666 11.6839 0.482666C11.6839 0.482666 18.4972 0.482666 20.1963 0.939754ZM15.1477 8.13799L9.4532 11.3689V4.90677L15.1477 8.13799Z" fill="#0DD0BA"/>
</svg>
