<svg width="13" height="14" viewBox="0 0 13 14" fill="none" xmlns="http://www.w3.org/2000/svg">
<path d="M11.5703 2.30469C11.4922 2.125 11.3125 2 11.1094 2H1.10938C0.90625 2 0.726563 2.125 0.648438 2.30469C0.570312 2.49219 0.609375 2.71094 0.757813 2.85156L4.60938 6.70312V10.5C4.60938 10.6328 4.66406 10.7578 4.75781 10.8516L6.75781 12.8516C6.85156 12.9531 6.97656 13 7.10938 13C7.17188 13 7.24219 12.9844 7.30469 12.9609C7.48438 12.8828 7.60938 12.7031 7.60938 12.5V6.70312L11.4609 2.85156C11.6094 2.71094 11.6484 2.49219 11.5703 2.30469Z" fill="white"/>
</svg>
