<svg width="20" height="20" viewBox="0 0 20 20" fill="none" xmlns="http://www.w3.org/2000/svg">
<path d="M13.2419 9.14286C13.2419 11.8996 10.9986 14.1429 8.24191 14.1429C5.48521 14.1429 3.24191 11.8996 3.24191 9.14286C3.24191 6.38616 5.48521 4.14286 8.24191 4.14286C10.9986 4.14286 13.2419 6.38616 13.2419 9.14286ZM18.9562 18.4286C18.9562 18.0491 18.7999 17.6808 18.5432 17.4241L14.7151 13.596C15.6191 12.2902 16.0991 10.7277 16.0991 9.14286C16.0991 4.80134 12.5834 1.28571 8.24191 1.28571C3.90039 1.28571 0.384766 4.80134 0.384766 9.14286C0.384766 13.4844 3.90039 17 8.24191 17C9.82673 17 11.3892 16.5201 12.695 15.6161L16.5232 19.433C16.7799 19.7009 17.1482 19.8571 17.5276 19.8571C18.3089 19.8571 18.9562 19.2098 18.9562 18.4286Z" fill="#E1541B"/>
</svg>
